<?xml version="1.0" encoding="UTF-8"?>
<svg id="_이어_2" xmlns="http://www.w3.org/2000/svg" viewBox="0 0 161.17 161.17">
	<defs>
		<style>
			.cls-1 {
				fill: currentColor;
			}
		</style>
	</defs>
	<g id="_이어_1-2">
		<path class="cls-1"
			d="M98.26,80.59l59.25-59.25c4.88-4.88,4.88-12.8,0-17.68s-12.8-4.88-17.68,0l-59.25,59.25L21.34,3.66C16.46-1.22,8.54-1.22,3.66,3.66s-4.88,12.8,0,17.68l59.25,59.25L3.66,139.83c-4.88,4.88-4.88,12.8,0,17.68,2.44,2.44,5.64,3.66,8.84,3.66s6.4-1.22,8.84-3.66l59.25-59.25,59.25,59.25c2.44,2.44,5.64,3.66,8.84,3.66s6.4-1.22,8.84-3.66c4.88-4.88,4.88-12.8,0-17.68l-59.25-59.25Z" />
	</g>
</svg>