<?xml version="1.0" encoding="UTF-8"?><svg id="_이어_2" xmlns="http://www.w3.org/2000/svg" viewBox="0 0 430.34 280.24"><defs><style>.cls-1{fill:#fff;}</style></defs><g id="Layer_1"><path class="cls-1" d="M428.34,187.85l-30.7-129.99c-9.5-40.22-50.17-65.35-90.39-55.85h0c-11.46,2.71-21.68,7.95-30.24,14.98h-123.67c-8.56-7.03-18.78-12.28-30.24-14.98h0C82.88-7.49,42.21,17.64,32.71,57.86L2.01,187.85c-9.5,40.22,15.63,80.89,55.85,90.39h0c40.22,9.5,80.89-15.63,90.39-55.85l9.08-38.44h115.7l9.08,38.44c9.5,40.22,50.17,65.35,90.39,55.85s65.35-50.17,55.85-90.39ZM166.04,104.64c0,6.34-5.14,11.48-11.48,11.48h-15.65v15.65c0,6.34-5.14,11.48-11.48,11.48h-13.91c-6.34,0-11.48-5.14-11.48-11.48v-15.65h-15.65c-6.34,0-11.48-5.14-11.48-11.48v-13.91c0-6.34,5.14-11.48,11.48-11.48h15.65v-15.65c0-6.34,5.14-11.48,11.48-11.48h13.91c6.34,0,11.48,5.14,11.48,11.48v15.65h15.65c6.34,0,11.48,5.14,11.48,11.48v13.91Zm138.74-.57c0,4.32-3.5,7.83-7.83,7.83h-10.34c-4.32,0-7.83-3.5-7.83-7.83v-10.52c0-4.32,3.5-7.83,7.83-7.83h10.34c4.32,0,7.83,3.5,7.83,7.83v10.52Zm26.02,29.61c0,4.32-3.5,7.83-7.83,7.83h-10.34c-4.32,0-7.83-3.5-7.83-7.83v-10.52c0-4.32,3.5-7.83,7.83-7.83h10.34c4.32,0,7.83,3.5,7.83,7.83v10.52Zm0-59.22c0,4.32-3.5,7.83-7.83,7.83h-10.34c-4.32,0-7.83-3.5-7.83-7.83v-10.52c0-4.32,3.5-7.83,7.83-7.83h10.34c4.32,0,7.83,3.5,7.83,7.83v10.52Zm26.02,29.61c0,4.32-3.5,7.83-7.83,7.83h-10.34c-4.32,0-7.83-3.5-7.83-7.83v-10.52c0-4.32,3.5-7.83,7.83-7.83h10.34c4.32,0,7.83,3.5,7.83,7.83v10.52Z"/></g></svg>