<?xml version="1.0" encoding="UTF-8"?><svg id="_이어_2" xmlns="http://www.w3.org/2000/svg" viewBox="0 0 240.13 232.1"><defs><style>.cls-1{fill:#fff;}</style></defs><g id="_이어_1-2"><g><path class="cls-1" d="M206.32,128.82l-2.95-3.47L127.4,36.07c-3.87-4.55-10.75-4.55-14.62,0L36.81,125.35l-2.95,3.47-5.21,6.12-.99,1.17v81.91c0,7.78,5.51,14.08,12.3,14.08h47.5v-74.83c0-5.91,4.64-10.69,10.37-10.69h44.52c5.73,0,10.37,4.79,10.37,10.69v74.83h47.5c6.79,0,12.3-6.31,12.3-14.08v-81.91l-.99-1.17-5.21-6.12Z"/><path class="cls-1" d="M212.53,102.75V27.89c0-3.55-2.79-6.43-6.24-6.43h-31.47c-3.44,0-6.23,2.88-6.23,6.43v23.59l-5.34-6.24L127.4,3.41c-3.87-4.55-10.75-4.55-14.62,0L0,134.94H21.61l8.94-9.59L112.78,28.72c3.87-4.55,10.75-4.55,14.62,0l35.85,42.13,32.13,37.76,14.24,16.74,8.92,9.59h21.58l-27.59-32.2Z"/></g></g></svg>