<?xml version="1.0" encoding="UTF-8"?><svg id="_이어_2" xmlns="http://www.w3.org/2000/svg" viewBox="0 0 354.26 257.53"><defs><style>.cls-1{fill:#fff;}</style></defs><g id="_이어_1-2"><g><circle class="cls-1" cx="177.13" cy="99.39" r="45.65"/><path class="cls-1" d="M219.72,138.24c-10.54,11.55-25.72,18.8-42.59,18.8s-32.05-7.25-42.59-18.8c-21.13,13.94-35.15,37.87-35.15,64.93v54.36H254.87v-54.36c0-27.06-14.02-50.99-35.15-64.93Z"/><circle class="cls-1" cx="77.74" cy="45.65" r="45.65" transform="translate(-11.55 33.22) rotate(-22.5)"/><path class="cls-1" d="M126.77,128.41c-4.95-8.55-7.79-18.46-7.79-29.02,0-5.02,.64-9.9,1.84-14.55-.16-.11-.33-.23-.49-.33-10.54,11.55-25.72,18.8-42.59,18.8s-32.05-7.25-42.59-18.8C14.02,98.44,0,122.37,0,149.43v54.36H86.89v-.62c0-30,14.89-57.85,39.88-74.76Z"/><circle class="cls-1" cx="276.52" cy="45.65" r="45.65" transform="translate(-3.74 44.88) rotate(-9.22)"/><path class="cls-1" d="M319.11,84.5c-10.54,11.55-25.72,18.8-42.59,18.8s-32.05-7.25-42.59-18.8c-.17,.11-.33,.22-.49,.33,1.2,4.65,1.84,9.53,1.84,14.55,0,10.57-2.85,20.47-7.79,29.02,24.99,16.9,39.88,44.76,39.88,74.76v.62h86.89v-54.36c0-27.06-14.02-50.99-35.15-64.93Z"/></g></g></svg>