<?xml version="1.0" encoding="UTF-8"?><svg id="_이어_2" xmlns="http://www.w3.org/2000/svg" viewBox="0 0 227.3 227.3"><defs><style>.cls-1{fill:#fff;}</style></defs><g id="Layer_1"><path class="cls-1" d="M221.61,92.78h-26.73c-11.38,0-17.08-13.76-9.03-21.81l15.97-15.97c2.22-2.22,2.22-5.83,0-8.05l-21.46-21.46c-2.22-2.22-5.83-2.22-8.05,0l-15.97,15.97c-8.05,8.05-21.81,2.35-21.81-9.03V5.7c0-3.15-2.55-5.7-5.7-5.7h-30.35c-3.15,0-5.7,2.55-5.7,5.7v26.73c0,11.38-13.76,17.08-21.81,9.03l-15.97-15.97c-2.22-2.22-5.83-2.22-8.06,0l-21.46,21.46c-2.22,2.22-2.22,5.83,0,8.05l15.97,15.97c8.05,8.05,2.35,21.81-9.03,21.81H5.7c-3.15,0-5.7,2.55-5.7,5.7v30.35c0,3.15,2.55,5.7,5.7,5.7h26.73c11.38,0,17.08,13.76,9.03,21.81l-15.97,15.97c-2.22,2.22-2.22,5.83,0,8.06l21.46,21.46c2.22,2.22,5.83,2.22,8.05,0l15.97-15.98c8.05-8.05,21.81-2.35,21.81,9.03v26.73c0,3.15,2.55,5.7,5.7,5.7h30.35c3.15,0,5.7-2.55,5.7-5.7v-26.73c0-11.38,13.76-17.08,21.81-9.03l15.97,15.98c2.22,2.22,5.83,2.22,8.05,0l21.46-21.46c2.22-2.22,2.22-5.83,0-8.06l-15.97-15.97c-8.05-8.05-2.35-21.81,9.03-21.81h26.73c3.15,0,5.7-2.55,5.7-5.7v-30.35c0-3.15-2.55-5.7-5.7-5.7Zm-107.96,72.35c-28.43,0-51.48-23.05-51.48-51.48s23.05-51.48,51.48-51.48,51.48,23.05,51.48,51.48-23.05,51.48-51.48,51.48Z"/><path class="cls-1" d="M146.26,113.65c0,18.01-14.6,32.61-32.61,32.61s-32.6-14.6-32.6-32.61,14.59-32.61,32.6-32.61,32.61,14.6,32.61,32.61Z"/></g></svg>